<svg width="16" height="16" viewBox="0 0 200 196" fill="none" xmlns="http://www.w3.org/2000/svg">
<g clip-path="url(#clip0_3_4)">
<path fill-rule="evenodd" clip-rule="evenodd" d="M99.702 0C44.5694 0 0 44.898 0 100.443C0 144.843 28.5571 182.427 68.1735 195.729C73.1265 196.729 74.9408 193.567 74.9408 190.908C74.9408 188.58 74.7775 180.598 74.7775 172.282C47.0429 178.269 41.2673 160.308 41.2673 160.308C36.8102 148.667 30.2061 145.676 30.2061 145.676C21.1286 139.522 30.8673 139.522 30.8673 139.522C40.9367 140.188 46.2204 149.833 46.2204 149.833C55.1327 165.131 69.4939 160.808 75.2714 158.147C76.0959 151.661 78.7388 147.171 81.5449 144.678C59.4245 142.349 36.151 133.702 36.151 95.1204C36.151 84.1449 40.1102 75.1653 46.3837 68.1816C45.3939 65.6878 41.9265 55.3755 47.3755 41.5735C47.3755 41.5735 55.7939 38.9122 74.7755 51.8837C82.9022 49.685 91.2832 48.5666 99.702 48.5571C108.12 48.5571 116.702 49.7224 124.627 51.8837C143.61 38.9122 152.029 41.5735 152.029 41.5735C157.478 55.3755 154.008 65.6878 153.018 68.1816C159.457 75.1653 163.253 84.1449 163.253 95.1204C163.253 133.702 139.98 142.182 117.694 144.678C121.327 147.837 124.461 153.822 124.461 163.302C124.461 176.771 124.298 187.582 124.298 190.906C124.298 193.567 126.114 196.729 131.065 195.731C170.682 182.424 199.239 144.843 199.239 100.443C199.402 44.898 154.669 0 99.702 0Z" fill="white"/>
</g>
<defs>
<clipPath id="clip0_3_4">
<rect width="200" height="195.918" fill="white"/>
</clipPath>
</defs>
</svg>
