<svg width="16" height="16" viewBox="0 0 200 200" fill="none" xmlns="http://www.w3.org/2000/svg">
<mask id="mask0_3_7" style="mask-type:luminance" maskUnits="userSpaceOnUse" x="8" y="8" width="180" height="184">
<path d="M185.417 83.3333H100V118.75H149.167C144.583 141.25 125.417 154.167 100 154.167C70 154.167 45.8333 130 45.8333 100C45.8333 70 70 45.8333 100 45.8333C112.917 45.8333 124.583 50.4167 133.75 57.9167L160.417 31.25C144.167 17.0833 123.333 8.33333 100 8.33333C49.1667 8.33333 8.33333 49.1667 8.33333 100C8.33333 150.833 49.1667 191.667 100 191.667C145.833 191.667 187.5 158.333 187.5 100C187.5 94.5833 186.667 88.75 185.417 83.3333Z" fill="white"/>
</mask>
<g mask="url(#mask0_3_7)">
<path d="M0 154.167V45.8333L70.8333 100L0 154.167Z" fill="#FBBC05"/>
</g>
<mask id="mask1_3_7" style="mask-type:luminance" maskUnits="userSpaceOnUse" x="8" y="8" width="180" height="184">
<path d="M185.417 83.3333H100V118.75H149.167C144.583 141.25 125.417 154.167 100 154.167C70 154.167 45.8333 130 45.8333 100C45.8333 70 70 45.8333 100 45.8333C112.917 45.8333 124.583 50.4167 133.75 57.9167L160.417 31.25C144.167 17.0833 123.333 8.33333 100 8.33333C49.1667 8.33333 8.33333 49.1667 8.33333 100C8.33333 150.833 49.1667 191.667 100 191.667C145.833 191.667 187.5 158.333 187.5 100C187.5 94.5833 186.667 88.75 185.417 83.3333Z" fill="white"/>
</mask>
<g mask="url(#mask1_3_7)">
<path d="M0 45.8333L70.8333 100L100 74.5833L200 58.3333V0H0V45.8333Z" fill="#EA4335"/>
</g>
<mask id="mask2_3_7" style="mask-type:luminance" maskUnits="userSpaceOnUse" x="8" y="8" width="180" height="184">
<path d="M185.417 83.3333H100V118.75H149.167C144.583 141.25 125.417 154.167 100 154.167C70 154.167 45.8333 130 45.8333 100C45.8333 70 70 45.8333 100 45.8333C112.917 45.8333 124.583 50.4167 133.75 57.9167L160.417 31.25C144.167 17.0833 123.333 8.33333 100 8.33333C49.1667 8.33333 8.33333 49.1667 8.33333 100C8.33333 150.833 49.1667 191.667 100 191.667C145.833 191.667 187.5 158.333 187.5 100C187.5 94.5833 186.667 88.75 185.417 83.3333Z" fill="white"/>
</mask>
<g mask="url(#mask2_3_7)">
<path d="M0 154.167L125 58.3333L157.917 62.5L200 0V200H0V154.167Z" fill="#34A853"/>
</g>
<mask id="mask3_3_7" style="mask-type:luminance" maskUnits="userSpaceOnUse" x="8" y="8" width="180" height="184">
<path d="M185.417 83.3333H100V118.75H149.167C144.583 141.25 125.417 154.167 100 154.167C70 154.167 45.8333 130 45.8333 100C45.8333 70 70 45.8333 100 45.8333C112.917 45.8333 124.583 50.4167 133.75 57.9167L160.417 31.25C144.167 17.0833 123.333 8.33333 100 8.33333C49.1667 8.33333 8.33333 49.1667 8.33333 100C8.33333 150.833 49.1667 191.667 100 191.667C145.833 191.667 187.5 158.333 187.5 100C187.5 94.5833 186.667 88.75 185.417 83.3333Z" fill="white"/>
</mask>
<g mask="url(#mask3_3_7)">
<path d="M200 200L70.8333 100L54.1667 87.5L200 45.8333V200Z" fill="#4285F4"/>
</g>
</svg>
